HIERARCHY
ROOT Hips
{
	OFFSET 0.000000 0.000000 0.000000
	CHANNELS 6 Xposition Yposition Zposition Zrotation Yrotation Xrotation 
	JOINT LHipJoint
	{
		OFFSET 0.000000 0.000000 0.000000
		CHANNELS 3 Zrotation Yrotation Xrotation
		JOINT LeftUpLeg
		{
			OFFSET 1.363060 -1.794630 0.839290
			CHANNELS 3 Zrotation Yrotation Xrotation
			JOINT LeftLeg
			{
				OFFSET 2.448110 -6.726130 0.000000
				CHANNELS 3 Zrotation Yrotation Xrotation
				JOINT LeftFoot
				{
					OFFSET 2.562200 -7.039590 0.000000
					CHANNELS 3 Zrotation Yrotation Xrotation
					JOINT LeftToeBase
					{
						OFFSET 0.157640 -0.433110 2.322550
						CHANNELS 3 Zrotation Yrotation Xrotation
						End Site
						{
							OFFSET 0.000000 0.000000 0.000000
						}
					}
				}
			}
		}
	}
	JOINT RHipJoint
	{
		OFFSET 0.000000 0.000000 0.000000
		CHANNELS 3 Zrotation Yrotation Xrotation
		JOINT RightUpLeg
		{
			OFFSET -1.305520 -1.794630 0.839290
			CHANNELS 3 Zrotation Yrotation Xrotation
			JOINT RightLeg
			{
				OFFSET -2.542530 -6.985550 0.000000
				CHANNELS 3 Zrotation Yrotation Xrotation
				JOINT RightFoot
				{
					OFFSET -2.568260 -7.056230 0.000000
					CHANNELS 3 Zrotation Yrotation Xrotation
					JOINT RightToeBase
					{
						OFFSET -0.164730 -0.452590 2.363150
						CHANNELS 3 Zrotation Yrotation Xrotation
						End Site
						{
							OFFSET 0.000000 0.000000 0.000000
						}
					}
				}
			}
		}
	}
	JOINT LowerBack
	{
		OFFSET 0.000000 0.000000 0.000000
		CHANNELS 3 Zrotation Yrotation Xrotation
		JOINT Spine
		{
			OFFSET 0.028270 2.035590 -0.193380
			CHANNELS 3 Zrotation Yrotation Xrotation
			JOINT Spine1
			{
				OFFSET 0.056720 2.048850 -0.042750
				CHANNELS 3 Zrotation Yrotation Xrotation
				JOINT Neck
				{
					OFFSET 0.000000 0.000000 0.000000
					CHANNELS 3 Zrotation Yrotation Xrotation
					JOINT Neck1
					{
						OFFSET -0.054170 1.746240 0.172020
						CHANNELS 3 Zrotation Yrotation Xrotation
						JOINT Head
						{
							OFFSET 0.104070 1.761360 -0.123970
							CHANNELS 3 Zrotation Yrotation Xrotation
							End Site
							{
								OFFSET 0.000000 0.000000 0.000000
							}
						}
					}
				}
				JOINT LeftShoulder
				{
					OFFSET 0.000000 0.000000 0.000000
					CHANNELS 3 Zrotation Yrotation Xrotation
					JOINT LeftArm
					{
						OFFSET 3.362410 1.200890 -0.311210
						CHANNELS 3 Zrotation Yrotation Xrotation
						JOINT LeftForeArm
						{
							OFFSET 4.983000 -0.000000 -0.000000
							CHANNELS 3 Zrotation Yrotation Xrotation
							JOINT LeftHand
							{
								OFFSET 3.483560 -0.000000 -0.000000
								CHANNELS 3 Zrotation Yrotation Xrotation
								JOINT LeftFingerBase
								{
									OFFSET 0.000000 0.000000 0.000000
									CHANNELS 3 Zrotation Yrotation Xrotation
									JOINT LeftHandIndex1
									{
										OFFSET 0.715260 -0.000000 -0.000000
										CHANNELS 3 Zrotation Yrotation Xrotation
										End Site
										{
											OFFSET 0.000000 0.000000 0.000000
										}
									}
								}
								JOINT LThumb
								{
									OFFSET 0.000000 0.000000 0.000000
									CHANNELS 3 Zrotation Yrotation Xrotation
									End Site
									{
										OFFSET 0.000000 0.000000 0.000000
									}
								}
							}
						}
					}
				}
				JOINT RightShoulder
				{
					OFFSET 0.000000 0.000000 0.000000
					CHANNELS 3 Zrotation Yrotation Xrotation
					JOINT RightArm
					{
						OFFSET -3.136600 1.374050 -0.404650
						CHANNELS 3 Zrotation Yrotation Xrotation
						JOINT RightForeArm
						{
							OFFSET -5.241900 -0.000000 -0.000000
							CHANNELS 3 Zrotation Yrotation Xrotation
							JOINT RightHand
							{
								OFFSET -3.444170 -0.000000 -0.000000
								CHANNELS 3 Zrotation Yrotation Xrotation
								JOINT RightFingerBase
								{
									OFFSET 0.000000 0.000000 0.000000
									CHANNELS 3 Zrotation Yrotation Xrotation
									JOINT RightHandIndex1
									{
										OFFSET -0.622530 -0.000000 -0.000000
										CHANNELS 3 Zrotation Yrotation Xrotation
										End Site
										{
											OFFSET 0.000000 0.000000 0.000000
										}
									}
								}
								JOINT RThumb
								{
									OFFSET 0.000000 0.000000 0.000000
									CHANNELS 3 Zrotation Yrotation Xrotation
									End Site
									{
										OFFSET 0.000000 0.000000 0.000000
									}
								}
							}
						}
					}
				}
			}
		}
	}
}
MOTION
Frames: 7
Frame Time: 0.016667
0.291645 16.727423 0.291645 -2.889860 -12.686598 7.870896 -14.576420 22.300474 9.765907 -3.766694 -7.232612 -28.540577 -7.517709 -7.222606 -24.582988 0.931603 15.579639 30.234665 0.000000 0.000000 0.000000 5.588869 -34.809099 -1.431354 45.748623 24.522075 -19.134797 -39.250944 -2.035917 42.216909 8.310698 -20.554530 9.804842 0.000000 0.000000 0.000000 5.426562 3.579763 -0.990375 2.490467 2.660430 20.115126 -4.615655 3.699309 -18.094744 4.255195 -1.166463 -8.317726 -3.206281 -0.302095 -0.149801 0.000000 0.000000 0.000000 -6.531672 16.080196 9.988297 -66.194354 -4.201121 9.957927 -168.533558 -89.599691 -179.649885 4.520570 -10.657707 0.172563 4.546028 -10.647413 0.000000 0.000000 0.000000 0.000000 0.000000 0.000000 0.000000 -1.580715 -12.768173 7.490458 62.184076 2.446113 23.147699 15.019298 79.428033 0.399253 -1.087408 11.688938 0.197289 -1.106750 11.691479 0.000000 0.000000 0.000000 0.000000 0.000000 0.000000 0.000000 
0.301799 16.758606 0.452017 -2.496321 -12.757456 7.702361 -14.573338 22.532238 10.047142 -4.191118 -7.431075 -28.469587 -7.455627 -6.952102 -23.582127 0.664717 14.641911 28.248488 0.000000 0.000000 0.000000 5.011063 -34.766837 -0.887993 44.887868 24.598589 -19.475494 -38.626854 -2.197439 42.773417 8.233526 -20.213089 9.467272 0.000000 0.000000 0.000000 6.403409 3.772797 -2.310782 -0.097820 2.853439 22.973465 -3.633128 3.518369 -18.323002 4.845070 -1.182611 -9.416674 -3.200995 -0.304298 -0.291592 0.000000 0.000000 0.000000 -5.824629 15.608138 9.684440 -66.892254 -4.828126 8.781429 -167.236207 -89.072187 -179.687548 4.821238 -10.655218 0.153476 4.850849 -10.642484 0.000000 0.000000 0.000000 0.000000 0.000000 0.000000 0.000000 -2.001309 -12.439381 7.480241 63.085534 2.959966 22.202100 15.513873 78.267835 0.404423 -1.050257 11.926524 0.199799 -1.070006 11.929159 0.000000 0.000000 0.000000 0.000000 0.000000 0.000000 0.000000 
0.314168 16.791609 0.611829 -2.109974 -12.795141 7.555589 -14.587509 22.736521 10.294255 -4.594241 -7.632371 -28.419882 -7.405793 -6.655328 -22.509695 0.426148 13.700021 26.261539 0.000000 0.000000 0.000000 4.459462 -34.701200 -0.349616 43.988389 24.659740 -19.858954 -37.994785 -2.386098 43.281895 8.132878 -19.897851 9.212057 0.000000 0.000000 0.000000 7.359675 4.002660 -3.553700 -2.587284 3.148993 25.534608 -2.679867 3.340424 -18.362175 5.411362 -1.180807 -10.409299 -3.177386 -0.304032 -0.446583 0.000000 0.000000 0.000000 -5.054449 15.101125 9.408301 -67.609982 -5.457989 7.563413 -165.955508 -88.553539 -179.727057 5.123143 -10.645016 0.133448 5.157030 -10.629708 0.000000 0.000000 0.000000 0.000000 0.000000 0.000000 0.000000 -2.477745 -12.084608 7.484502 64.025811 3.479865 21.235122 15.975749 77.072985 0.408943 -1.018550 12.158762 0.201987 -1.038708 12.161465 0.000000 0.000000 0.000000 0.000000 0.000000 0.000000 0.000000 
0.326870 16.824667 0.768825 -1.874623 -12.485994 7.310964 -14.107804 23.221151 10.551586 -5.275220 -8.147260 -28.552513 -7.643091 -6.208101 -20.538975 0.193715 12.303316 23.767445 0.000000 0.000000 0.000000 3.693588 -34.762378 -0.394503 43.401608 23.572305 -19.392054 -36.961130 -2.979629 43.224443 7.910942 -19.190269 8.022340 0.000000 0.000000 0.000000 7.919504 4.060668 -4.198933 -3.777612 3.247710 27.100214 -2.373054 3.127743 -18.467856 5.627789 -1.137267 -10.915579 -3.001605 -0.287989 -0.523859 0.000000 0.000000 0.000000 -4.671664 14.834783 9.190853 -67.854504 -5.734569 7.342601 -165.620258 -88.463041 -179.732704 5.194176 -10.634883 0.130583 5.228690 -10.619063 0.000000 0.000000 0.000000 0.000000 0.000000 0.000000 0.000000 -2.826201 -12.045686 7.538523 64.718489 3.738607 20.545743 16.514118 75.961060 0.411341 -0.960833 12.305153 0.203172 -0.980797 12.307987 0.000000 0.000000 0.000000 0.000000 0.000000 0.000000 0.000000 
0.341167 16.858682 0.924479 -1.644685 -12.111155 7.052643 -13.636899 23.706166 10.799527 -5.938609 -8.685417 -28.715724 -7.859669 -5.721059 -18.442435 -0.008061 10.904657 21.302954 0.000000 0.000000 0.000000 2.932770 -34.783716 -0.443873 42.754866 22.432576 -18.917943 -35.882882 -3.630029 43.103310 7.659422 -18.519196 6.872646 0.000000 0.000000 0.000000 8.475631 4.126186 -4.844943 -4.996477 3.363062 28.638384 -1.987730 2.890511 -18.387184 5.926629 -1.100810 -11.547388 -2.885829 -0.278445 -0.584254 0.000000 0.000000 0.000000 -4.224127 14.436013 9.007595 -68.241639 -5.991352 6.951653 -165.134854 -88.346318 -179.741818 5.304086 -10.643762 0.125941 5.339773 -10.627085 0.000000 0.000000 0.000000 0.000000 0.000000 0.000000 0.000000 -3.245621 -11.876591 7.634911 65.492155 4.015682 19.723275 16.805134 74.823188 0.410662 -0.939357 12.444274 0.202808 -0.959458 12.447093 0.000000 0.000000 0.000000 0.000000 0.000000 0.000000 0.000000 
0.407525 16.929223 1.129950 -1.448470 -12.214904 6.811049 -15.023958 23.987656 11.840877 -4.498832 -8.806528 -29.969499 -7.804864 -5.342766 -17.361023 -0.144913 10.254379 19.616203 0.000000 0.000000 0.000000 1.806668 -34.577643 0.392035 41.676116 21.697610 -19.081894 -34.351742 -4.436317 42.761699 7.024888 -17.702266 6.471626 0.000000 0.000000 0.000000 11.211880 4.811833 -7.234793 -8.443321 4.261726 33.167472 -1.310463 2.621038 -19.229890 5.860208 -0.976220 -11.971349 -2.639463 -0.239099 -1.105861 0.000000 0.000000 0.000000 -3.801077 13.801151 8.898688 -68.468329 -6.146644 7.282260 -165.356349 -88.646354 -179.740903 5.420753 -10.878077 0.126144 5.459227 -10.860063 0.000000 0.000000 0.000000 0.000000 0.000000 0.000000 0.000000 -3.073042 -12.139835 7.147729 65.691074 4.103715 19.926393 15.511908 75.850150 0.407678 -1.149334 12.462806 0.201202 -1.171317 12.464976 0.000000 0.000000 0.000000 0.000000 0.000000 0.000000 0.000000 
0.475948 17.000376 1.334840 -1.254638 -12.259670 6.630260 -16.524475 24.189946 12.823851 -2.922868 -8.855605 -31.283891 -7.779478 -4.936612 -16.261908 -0.259648 9.656741 18.015009 0.000000 0.000000 0.000000 0.790515 -34.306583 1.187538 40.482314 20.954225 -19.337822 -32.761650 -5.272439 42.368294 6.394489 -16.952307 6.141569 0.000000 0.000000 0.000000 13.936797 5.613866 -9.372958 -11.753011 5.298609 36.754100 -0.687839 2.343143 -19.429969 5.631856 -0.798286 -11.942743 -2.233214 -0.171817 -1.643438 0.000000 0.000000 0.000000 -3.289590 13.008495 8.864688 -68.741364 -6.324042 7.517102 -165.569944 -88.989056 -179.743735 5.549799 -11.110183 0.124434 5.591558 -11.090605 0.000000 0.000000 0.000000 0.000000 0.000000 0.000000 0.000000 -2.861834 -12.316336 6.714293 65.922791 4.204053 19.991543 14.154288 76.850791 0.399462 -1.383950 12.470312 0.196959 -1.408359 12.471628 0.000000 0.000000 0.000000 0.000000 0.000000 0.000000 0.000000 
